Coordinates
version=1
nRows=54
nColumns=12
inDegrees=yes

Units are S.I. units (second, meters, Newtons, ...)
Angles are in degrees

endheader
time	SC_y	SC_z	SC_x	AC_y	AC_z	AC_x	GH_y	GH_z	GH_yy	EL_x	PS_y
       0.0               -27.6          28.61          78.33          34.23         -8.947          -11.9         -38.13          48.76          -35.5          15.93          38.95
   0.01436              -27.61           28.6          78.32          34.23         -8.944         -11.89         -38.13          48.76         -35.49          15.95          38.95
   0.02871              -27.61           28.6          78.32          34.24         -8.942         -11.89         -38.13          48.77         -35.48          15.96          38.95
   0.04307              -27.61          28.59          78.31          34.24         -8.939         -11.88         -38.13          48.77         -35.48          15.98          38.95
   0.05743              -27.61          28.59           78.3          34.25         -8.936         -11.88         -38.12          48.77         -35.47          15.99          38.95
   0.07179              -27.61          28.58           78.3          34.25         -8.932         -11.87         -38.12          48.78         -35.46          16.01          38.96
   0.08614              -27.61          28.58          78.29          34.26         -8.929         -11.87         -38.12          48.78         -35.45          16.03          38.96
    0.1005              -27.61          28.57          78.28          34.26         -8.925         -11.86         -38.12          48.78         -35.44          16.05          38.96
    0.1149              -27.62          28.56          78.27          34.27         -8.921         -11.86         -38.12          48.79         -35.43          16.07          38.96
    0.1292              -27.62          28.56          78.26          34.28         -8.917         -11.85         -38.12          48.79         -35.42          16.09          38.96
    0.1436              -27.62          28.55          78.25          34.28         -8.912         -11.84         -38.11           48.8         -35.41          16.12          38.96
    0.1579              -27.62          28.54          78.24          34.29         -8.907         -11.83         -38.11           48.8          -35.4          16.14          38.96
    0.1723              -27.63          28.53          78.23           34.3         -8.902         -11.83         -38.11          48.81         -35.39          16.17          38.96
    0.1866              -27.63          28.52          78.21          34.31         -8.896         -11.82         -38.11          48.82         -35.37           16.2          38.96
     0.201              -27.63          28.51           78.2          34.32         -8.889         -11.81          -38.1          48.82         -35.36          16.24          38.97
    0.2154              -27.63           28.5          78.19          34.33         -8.883          -11.8          -38.1          48.83         -35.34          16.27          38.97
    0.2297              -27.64          28.48          78.17          34.34         -8.875         -11.79          -38.1          48.84         -35.32          16.31          38.97
    0.2441              -27.64          28.47          78.15          34.36         -8.867         -11.77         -38.09          48.85          -35.3          16.36          38.97
    0.2584              -27.65          28.46          78.13          34.37         -8.858         -11.76         -38.09          48.86         -35.28           16.4          38.97
    0.2728              -27.65          28.44          78.11          34.39         -8.848         -11.75         -38.08          48.87         -35.26          16.45          38.98
    0.2871              -27.66          28.42          78.09           34.4         -8.838         -11.73         -38.08          48.88         -35.23          16.51          38.98
    0.3015              -27.66           28.4          78.06          34.42         -8.826         -11.71         -38.07          48.89         -35.21          16.57          38.98
    0.3159              -27.67          28.38          78.03          34.44         -8.813         -11.69         -38.07          48.91         -35.17          16.64          38.99
    0.3302              -27.67          28.35           78.0          34.47         -8.799         -11.67         -38.06          48.92         -35.14          16.72          38.99
    0.3446              -27.68          28.33          77.96          34.49         -8.783         -11.65         -38.05          48.94          -35.1           16.8          38.99
    0.3589              -27.69           28.3          77.92          34.52         -8.765         -11.62         -38.04          48.96         -35.06          16.89           39.0
    0.3733               -27.7          28.26          77.88          34.55         -8.745         -11.59         -38.03          48.98         -35.01           17.0           39.0
    0.3877              -27.71          28.22          77.83          34.59         -8.722         -11.56         -38.02          49.01         -34.96          17.12          39.01
     0.402              -27.72          28.18          77.78          34.63         -8.697         -11.52         -38.01          49.04          -34.9          17.25          39.01
    0.4164              -27.74          28.13          77.71          34.68         -8.668         -11.48          -38.0          49.07         -34.83           17.4          39.02
    0.4307              -27.75          28.08          77.64          34.73         -8.635         -11.43         -37.98           49.1         -34.75          17.58          39.03
    0.4451              -27.77          28.01          77.56          34.79         -8.597         -11.37         -37.96          49.14         -34.66          17.78          39.04
    0.4594              -27.79          27.94          77.46          34.86         -8.554          -11.3         -37.94          49.19         -34.55           18.0          39.05
    0.4738              -27.82          27.85          77.35          34.94         -8.503         -11.23         -37.92          49.25         -34.43          18.27          39.06
    0.4882              -27.84          27.75          77.22          35.03         -8.444         -11.14         -37.89          49.31         -34.29          18.58          39.08
    0.5025              -27.88          27.63          77.06          35.15         -8.374         -11.03         -37.85          49.39         -34.12          18.95           39.1
    0.5169              -27.92          27.49          76.88          35.28         -8.291         -10.91         -37.81          49.48         -33.92          19.39          39.12
    0.5312              -27.96          27.32          76.66          35.44         -8.191         -10.76         -37.77          49.59         -33.68          19.91          39.14
    0.5456              -28.02          27.11          76.39          35.63         -8.071         -10.58         -37.71          49.72         -33.39          20.55          39.17
    0.5599              -28.09          26.86          76.07          35.87         -7.924         -10.36         -37.64          49.89         -33.04          21.32          39.21
    0.5743              -28.18          26.56          75.67          36.16         -7.742         -10.08         -37.55          50.09          -32.6          22.28          39.25
    0.5887              -28.28          26.17          75.17          36.52         -7.516         -9.744         -37.44          50.34         -32.06          23.47          39.31
     0.603              -28.42          25.68          74.54          36.97         -7.231         -9.315          -37.3          50.65         -31.37          24.98          39.38
    0.6174              -28.59          25.07          73.74          37.55         -6.868          -8.77         -37.13          51.05          -30.5          26.89          39.47
    0.6317              -28.81          24.28          72.71           38.3         -6.404         -8.073         -36.91          51.56         -29.39          29.33          39.59
    0.6461               -29.1          23.26           71.4          39.25         -5.808         -7.178         -36.62          52.21         -27.96          32.47          39.74
    0.6604              -29.46          21.97          69.72          40.47         -5.048         -6.034         -36.25          53.05         -26.13          36.48          39.93
    0.6748              -29.91          20.34          67.61          41.99         -4.091         -4.597         -35.79           54.1         -23.83          41.51          40.17
    0.6892              -30.46          18.35          65.03          43.86         -2.925         -2.844         -35.23          55.39         -21.03          47.66          40.46
    0.7035              -31.11          16.05          62.05          46.02         -1.574        -0.8137         -34.58          56.87         -17.79          54.77           40.8
    0.7179               -31.8          13.56          58.82          48.36         -0.111          1.385         -33.88          58.48         -14.28          62.48          41.17
    0.7322               -32.5          11.07          55.59           50.7          1.352          3.584         -33.17          60.09         -10.76          70.19          41.53
    0.7466              -33.14          8.767          52.61          52.86          2.703          5.615         -32.52          61.58         -7.517          77.31          41.87
    0.7609              -33.69          6.782          50.03          54.72          3.869          7.367         -31.96          62.86         -4.718          83.45          42.17
